# xmcd
#
# Track frame offsets:
#	150
#	13677
#	24702
#	37677
#	55220
#	68797
#	76632
#	87687
#	103897
#	117872
#	134647
#
# Disc length: 2064 seconds
#
# Revision: 1
# Processed by: cddbd v1.5PL3 Copyright (c) Steve Scherf et al.
# Submitted via: audiograbber 1.83.01
#
DISCID=8d080e0b
DTITLE=LH-Special - Do It
DYEAR=1900
DGENRE=Country
TTITLE0=Äppelwoi Rock'n Roll
TTITLE1=Don't Care What They Say
TTITLE2=Feels Like I'm Fixin' To Die Rag
TTITLE3=Do It
TTITLE4=Swing Low
TTITLE5=Great God In Heaven
TTITLE6=Louisiana Saturday Night
TTITLE7=Together
TTITLE8=Oh Susanne
TTITLE9=Leaving On A Jetplane
TTITLE10=Rockin' Horse (Bat Cave Bar and Grill)
EXTD=
EXTT0=
EXTT1=
EXTT2=
EXTT3=
EXTT4=
EXTT5=
EXTT6=
EXTT7=
EXTT8=
EXTT9=
EXTT10=
PLAYORDER=
